<svg width="300" height="185" viewBox="0 0 300 185" fill="none" xmlns="http://www.w3.org/2000/svg">
<rect width="300" height="185" rx="80" fill="#D9D9D9"/>
<path d="M39.485 92V62.07H59.165V66.088H43.995V74.37H58.345V78.306H43.995V87.982H59.165V92H39.485ZM65.1023 92V70.68H69.3253L69.3663 73.222H69.4483C70.2956 72.238 71.3206 71.5 72.5233 71.008C73.726 70.516 75.12 70.27 76.7053 70.27C79.3293 70.27 81.2563 70.967 82.4863 72.361C83.7436 73.755 84.3723 75.928 84.3723 78.88V92H79.9443V79.7C79.9443 77.732 79.5753 76.2833 78.8373 75.354C78.1266 74.4247 77.006 73.96 75.4753 73.96C74.3273 73.96 73.3023 74.1923 72.4003 74.657C71.4983 75.1217 70.7876 75.7503 70.2683 76.543C69.7763 77.3357 69.5303 78.2513 69.5303 79.29V92H65.1023ZM98.6759 92.41C96.2159 92.41 94.4392 91.9043 93.3459 90.893C92.2799 89.8543 91.7469 88.1733 91.7469 85.85V74.37H86.8269V70.68H91.7469V63.71H96.2159V70.68H103.637V74.37H96.2159V84.62C96.2159 86.0687 96.4619 87.08 96.9539 87.654C97.4459 88.228 98.3205 88.515 99.5779 88.515C100.207 88.515 100.835 88.4603 101.464 88.351C102.12 88.2417 102.708 88.0913 103.227 87.9L103.637 91.672C102.762 91.9453 101.915 92.1367 101.095 92.246C100.302 92.3553 99.4959 92.41 98.6759 92.41ZM118.187 92.41C114.497 92.41 111.655 91.4533 109.659 89.54C107.664 87.6267 106.666 84.8933 106.666 81.34C106.666 77.896 107.582 75.19 109.413 73.222C111.272 71.254 113.814 70.27 117.039 70.27C120.155 70.27 122.547 71.1993 124.214 73.058C125.909 74.9167 126.756 77.5543 126.756 80.971C126.756 81.3263 126.743 81.7227 126.715 82.16C126.715 82.5973 126.702 82.939 126.674 83.185H109.126V79.7H123.312L122.615 80.766C122.615 78.4427 122.151 76.7207 121.221 75.6C120.292 74.452 118.898 73.878 117.039 73.878C115.071 73.878 113.568 74.4793 112.529 75.682C111.518 76.8847 111.012 78.634 111.012 80.93V82.16C111.012 84.374 111.586 86.0277 112.734 87.121C113.91 88.187 115.673 88.72 118.023 88.72C119.171 88.72 120.388 88.6107 121.672 88.392C122.984 88.146 124.146 87.8317 125.157 87.449L125.731 91.016C124.693 91.4533 123.504 91.795 122.164 92.041C120.852 92.287 119.527 92.41 118.187 92.41ZM131.447 92V70.68H135.711L135.752 74.78H135.834C136.517 73.8233 137.337 73.017 138.294 72.361C139.278 71.6777 140.371 71.1583 141.574 70.803C142.804 70.4477 144.075 70.27 145.387 70.27V74.165C143.638 74.165 142.039 74.5067 140.59 75.19C139.169 75.8733 138.034 76.789 137.187 77.937C136.34 79.085 135.916 80.356 135.916 81.75V92H131.447ZM161.124 92V62.07H166.864L175.638 80.397H175.72L184.494 62.07H190.234V92H185.724V69.245H185.642L177.811 85.645H173.547L165.716 69.245H165.634V92H161.124ZM205.973 92.41C202.584 92.41 199.96 91.4533 198.101 89.54C196.242 87.5993 195.313 84.866 195.313 81.34C195.313 77.814 196.242 75.0943 198.101 73.181C199.96 71.2403 202.584 70.27 205.973 70.27C209.362 70.27 211.986 71.2403 213.845 73.181C215.704 75.0943 216.633 77.814 216.633 81.34C216.633 84.866 215.704 87.5993 213.845 89.54C211.986 91.4533 209.362 92.41 205.973 92.41ZM205.973 88.72C207.996 88.72 209.54 88.0913 210.606 86.834C211.672 85.5767 212.205 83.7453 212.205 81.34C212.205 78.9347 211.672 77.1033 210.606 75.846C209.54 74.5887 207.996 73.96 205.973 73.96C203.978 73.96 202.433 74.5887 201.34 75.846C200.274 77.1033 199.741 78.9347 199.741 81.34C199.741 83.7453 200.274 85.5767 201.34 86.834C202.433 88.0913 203.978 88.72 205.973 88.72ZM229.119 92.41C226.276 92.41 224.049 91.4397 222.436 89.499C220.823 87.531 220.017 84.8113 220.017 81.34C220.017 77.8687 220.823 75.1627 222.436 73.222C224.049 71.254 226.276 70.27 229.119 70.27C230.568 70.27 231.88 70.5297 233.055 71.049C234.258 71.541 235.242 72.2653 236.007 73.222H236.089V62.07H240.517V92H236.294L236.253 89.458H236.171C235.406 90.3873 234.394 91.1117 233.137 91.631C231.907 92.1503 230.568 92.41 229.119 92.41ZM230.103 88.72C231.278 88.72 232.303 88.4877 233.178 88.023C234.08 87.5583 234.791 86.916 235.31 86.096C235.829 85.276 236.089 84.3603 236.089 83.349V79.331C236.089 78.2923 235.829 77.3767 235.31 76.584C234.791 75.764 234.08 75.1217 233.178 74.657C232.303 74.1923 231.292 73.96 230.144 73.96C228.313 73.96 226.891 74.6023 225.88 75.887C224.869 77.1443 224.363 78.962 224.363 81.34C224.363 83.6907 224.869 85.5083 225.88 86.793C226.891 88.0777 228.299 88.72 230.103 88.72ZM256.803 92.41C253.113 92.41 250.27 91.4533 248.275 89.54C246.279 87.6267 245.282 84.8933 245.282 81.34C245.282 77.896 246.197 75.19 248.029 73.222C249.887 71.254 252.429 70.27 255.655 70.27C258.771 70.27 261.162 71.1993 262.83 73.058C264.524 74.9167 265.372 77.5543 265.372 80.971C265.372 81.3263 265.358 81.7227 265.331 82.16C265.331 82.5973 265.317 82.939 265.29 83.185H247.742V79.7H261.928L261.231 80.766C261.231 78.4427 260.766 76.7207 259.837 75.6C258.907 74.452 257.513 73.878 255.655 73.878C253.687 73.878 252.183 74.4793 251.145 75.682C250.133 76.8847 249.628 78.634 249.628 80.93V82.16C249.628 84.374 250.202 86.0277 251.35 87.121C252.525 88.187 254.288 88.72 256.639 88.72C257.787 88.72 259.003 88.6107 260.288 88.392C261.6 88.146 262.761 87.8317 263.773 87.449L264.347 91.016C263.308 91.4533 262.119 91.795 260.78 92.041C259.468 92.287 258.142 92.41 256.803 92.41Z" fill="#80CA5D"/>
<path d="M40.3386 125L48.9988 133.66L57.6591 125L48.9988 116.34L40.3386 125ZM261.062 126.061C261.648 125.475 261.648 124.525 261.062 123.939L251.516 114.393C250.93 113.808 249.98 113.808 249.395 114.393C248.809 114.979 248.809 115.929 249.395 116.515L257.88 125L249.395 133.485C248.809 134.071 248.809 135.021 249.395 135.607C249.98 136.192 250.93 136.192 251.516 135.607L261.062 126.061ZM48.9988 126.5H260.001V123.5H48.9988V126.5Z" fill="#66AC46"/>
</svg>
