<svg width="300" height="185" viewBox="0 0 300 185" fill="none" xmlns="http://www.w3.org/2000/svg">
<rect width="300" height="185" rx="80" fill="#D9D9D9"/>
<path d="M33.669 92.41C31.7557 92.41 29.856 92.205 27.97 91.795C26.1113 91.385 24.5397 90.8383 23.255 90.155L24.403 86.055C25.305 86.4923 26.289 86.8887 27.355 87.244C28.4483 87.572 29.5553 87.8317 30.676 88.023C31.824 88.2143 32.9173 88.31 33.956 88.31C36.0607 88.31 37.6733 87.9273 38.794 87.162C39.942 86.3967 40.516 85.3033 40.516 83.882C40.516 83.0893 40.3383 82.4333 39.983 81.914C39.6277 81.3673 39.1083 80.9027 38.425 80.52C37.769 80.1373 36.949 79.7957 35.965 79.495C34.981 79.167 33.874 78.839 32.644 78.511C31.2773 78.1283 30.02 77.7047 28.872 77.24C27.7513 76.748 26.7673 76.1603 25.92 75.477C25.1 74.7937 24.4577 73.9873 23.993 73.058C23.5557 72.1013 23.337 70.9943 23.337 69.737C23.337 67.1403 24.321 65.145 26.289 63.751C28.257 62.357 31.0313 61.66 34.612 61.66C36.416 61.66 38.2063 61.8377 39.983 62.193C41.787 62.521 43.3177 62.972 44.575 63.546L43.427 67.646C42.197 67.072 40.7893 66.621 39.204 66.293C37.646 65.9377 36.1017 65.76 34.571 65.76C32.439 65.76 30.8127 66.1153 29.692 66.826C28.5987 67.5093 28.052 68.4933 28.052 69.778C28.052 70.5433 28.216 71.1857 28.544 71.705C28.872 72.2243 29.3503 72.6753 29.979 73.058C30.6077 73.4133 31.373 73.7413 32.275 74.042C33.177 74.3427 34.2157 74.657 35.391 74.985C36.867 75.395 38.2063 75.846 39.409 76.338C40.6117 76.83 41.6367 77.4177 42.484 78.101C43.3587 78.7843 44.0283 79.6043 44.493 80.561C44.985 81.4903 45.231 82.611 45.231 83.923C45.231 86.6017 44.2197 88.6927 42.197 90.196C40.1743 91.672 37.3317 92.41 33.669 92.41ZM53.1068 92L47.3668 70.68H52.2048L55.8128 87.695H55.8948L59.5438 70.68H65.5298L69.1788 87.695H69.2608L72.8688 70.68H77.7068L71.9668 92H66.2268L62.5778 75.395H62.4958L58.8468 92H53.1068ZM82.1012 66.58V62.07H86.6112V66.58H82.1012ZM82.1012 92V70.68H86.6112V92H82.1012ZM102.694 92.41C100.234 92.41 98.4578 91.9043 97.3644 90.893C96.2984 89.8543 95.7654 88.1733 95.7654 85.85V74.37H90.8454V70.68H95.7654V63.71H100.234V70.68H107.655V74.37H100.234V84.62C100.234 86.0687 100.48 87.08 100.972 87.654C101.464 88.228 102.339 88.515 103.596 88.515C104.225 88.515 104.854 88.4603 105.482 88.351C106.138 88.2417 106.726 88.0913 107.245 87.9L107.655 91.672C106.781 91.9453 105.933 92.1367 105.113 92.246C104.321 92.3553 103.514 92.41 102.694 92.41ZM122.206 92.41C119.801 92.41 117.737 91.9727 116.015 91.098C114.293 90.2233 112.967 88.966 112.038 87.326C111.136 85.6587 110.685 83.6633 110.685 81.34C110.685 79.0167 111.136 77.035 112.038 75.395C112.967 73.7277 114.293 72.4567 116.015 71.582C117.737 70.7073 119.801 70.27 122.206 70.27C123.409 70.27 124.543 70.393 125.609 70.639C126.675 70.8577 127.714 71.2403 128.725 71.787L127.946 75.354C127.017 74.862 126.101 74.5067 125.199 74.288C124.297 74.0693 123.395 73.96 122.493 73.96C120.17 73.96 118.366 74.6023 117.081 75.887C115.824 77.1717 115.195 78.9893 115.195 81.34C115.195 83.6633 115.824 85.481 117.081 86.793C118.366 88.0777 120.17 88.72 122.493 88.72C123.395 88.72 124.297 88.6107 125.199 88.392C126.101 88.1733 127.017 87.818 127.946 87.326L128.725 90.893C127.714 91.4123 126.675 91.795 125.609 92.041C124.543 92.287 123.409 92.41 122.206 92.41ZM134.425 92V62.07H138.853V73.222H138.935C139.782 72.238 140.793 71.5 141.969 71.008C143.144 70.516 144.497 70.27 146.028 70.27C148.679 70.27 150.62 70.967 151.85 72.361C153.107 73.755 153.722 75.928 153.695 78.88V92H149.267V79.7C149.294 77.732 148.939 76.2833 148.201 75.354C147.463 74.4247 146.328 73.96 144.798 73.96C143.65 73.96 142.625 74.1923 141.723 74.657C140.848 75.1217 140.151 75.764 139.632 76.584C139.14 77.3767 138.88 78.2923 138.853 79.331V92H134.425ZM171.228 92V62.07H176.968L185.742 80.397H185.824L194.598 62.07H200.338V92H195.828V69.245H195.746L187.915 85.645H183.651L175.82 69.245H175.738V92H171.228ZM216.077 92.41C212.688 92.41 210.064 91.4533 208.205 89.54C206.347 87.5993 205.417 84.866 205.417 81.34C205.417 77.814 206.347 75.0943 208.205 73.181C210.064 71.2403 212.688 70.27 216.077 70.27C219.467 70.27 222.091 71.2403 223.949 73.181C225.808 75.0943 226.737 77.814 226.737 81.34C226.737 84.866 225.808 87.5993 223.949 89.54C222.091 91.4533 219.467 92.41 216.077 92.41ZM216.077 88.72C218.1 88.72 219.644 88.0913 220.71 86.834C221.776 85.5767 222.309 83.7453 222.309 81.34C222.309 78.9347 221.776 77.1033 220.71 75.846C219.644 74.5887 218.1 73.96 216.077 73.96C214.082 73.96 212.538 74.5887 211.444 75.846C210.378 77.1033 209.845 78.9347 209.845 81.34C209.845 83.7453 210.378 85.5767 211.444 86.834C212.538 88.0913 214.082 88.72 216.077 88.72ZM239.223 92.41C236.381 92.41 234.153 91.4397 232.54 89.499C230.928 87.531 230.121 84.8113 230.121 81.34C230.121 77.8687 230.928 75.1627 232.54 73.222C234.153 71.254 236.381 70.27 239.223 70.27C240.672 70.27 241.984 70.5297 243.159 71.049C244.362 71.541 245.346 72.2653 246.111 73.222H246.193V62.07H250.621V92H246.398L246.357 89.458H246.275C245.51 90.3873 244.499 91.1117 243.241 91.631C242.011 92.1503 240.672 92.41 239.223 92.41ZM240.207 88.72C241.383 88.72 242.408 88.4877 243.282 88.023C244.184 87.5583 244.895 86.916 245.414 86.096C245.934 85.276 246.193 84.3603 246.193 83.349V79.331C246.193 78.2923 245.934 77.3767 245.414 76.584C244.895 75.764 244.184 75.1217 243.282 74.657C242.408 74.1923 241.396 73.96 240.248 73.96C238.417 73.96 236.996 74.6023 235.984 75.887C234.973 77.1443 234.467 78.962 234.467 81.34C234.467 83.6907 234.973 85.5083 235.984 86.793C236.996 88.0777 238.403 88.72 240.207 88.72ZM266.907 92.41C263.217 92.41 260.374 91.4533 258.379 89.54C256.384 87.6267 255.386 84.8933 255.386 81.34C255.386 77.896 256.302 75.19 258.133 73.222C259.992 71.254 262.534 70.27 265.759 70.27C268.875 70.27 271.267 71.1993 272.934 73.058C274.629 74.9167 275.476 77.5543 275.476 80.971C275.476 81.3263 275.462 81.7227 275.435 82.16C275.435 82.5973 275.421 82.939 275.394 83.185H257.846V79.7H272.032L271.335 80.766C271.335 78.4427 270.87 76.7207 269.941 75.6C269.012 74.452 267.618 73.878 265.759 73.878C263.791 73.878 262.288 74.4793 261.249 75.682C260.238 76.8847 259.732 78.634 259.732 80.93V82.16C259.732 84.374 260.306 86.0277 261.454 87.121C262.629 88.187 264.392 88.72 266.743 88.72C267.891 88.72 269.107 88.6107 270.392 88.392C271.704 88.146 272.866 87.8317 273.877 87.449L274.451 91.016C273.412 91.4533 272.223 91.795 270.884 92.041C269.572 92.287 268.246 92.41 266.907 92.41Z" fill="#CA5D5D"/>
<path d="M268.661 125L260.001 116.34L251.341 125L260.001 133.66L268.661 125ZM47.9381 123.939C47.3523 124.525 47.3523 125.475 47.9381 126.061L57.4841 135.607C58.0699 136.192 59.0196 136.192 59.6054 135.607C60.1912 135.021 60.1912 134.071 59.6054 133.485L51.1201 125L59.6054 116.515C60.1912 115.929 60.1912 114.979 59.6054 114.393C59.0196 113.808 58.0699 113.808 57.4841 114.393L47.9381 123.939ZM260.001 123.5L48.9988 123.5V126.5L260.001 126.5V123.5Z" fill="#AC4646"/>
</svg>
