<svg width="300" height="185" viewBox="0 0 300 185" fill="none" xmlns="http://www.w3.org/2000/svg">
<rect width="300" height="185" rx="80" fill="#D9D9D9"/>
<path d="M25.975 91V65.45H33.675C37.4317 65.45 40.1733 66.0567 41.9 67.27C43.65 68.4833 44.525 70.4083 44.525 73.045C44.525 75.635 43.685 77.5717 42.005 78.855C40.3483 80.1383 37.8167 80.78 34.41 80.78H27.9V77.42H33.85C36.23 77.42 37.945 77.0933 38.995 76.44C40.0683 75.7633 40.605 74.6783 40.605 73.185C40.605 71.6917 40.0683 70.6183 38.995 69.965C37.945 69.2883 36.23 68.95 33.85 68.95H29.825V91H25.975ZM40.92 91L29.335 79.31H34.2L45.925 91H40.92ZM56.5877 91.35C53.4377 91.35 51.011 90.5333 49.3077 88.9C47.6044 87.2667 46.7527 84.9333 46.7527 81.9C46.7527 78.96 47.5344 76.65 49.0977 74.97C50.6844 73.29 52.8544 72.45 55.6077 72.45C58.2677 72.45 60.3094 73.2433 61.7327 74.83C63.1794 76.4167 63.9027 78.6683 63.9027 81.585C63.9027 81.8883 63.891 82.2267 63.8677 82.6C63.8677 82.9733 63.856 83.265 63.8327 83.475H48.8527V80.5H60.9627L60.3677 81.41C60.3677 79.4267 59.971 77.9567 59.1777 77C58.3844 76.02 57.1944 75.53 55.6077 75.53C53.9277 75.53 52.6444 76.0433 51.7577 77.07C50.8944 78.0967 50.4627 79.59 50.4627 81.55V82.6C50.4627 84.49 50.9527 85.9017 51.9327 86.835C52.936 87.745 54.441 88.2 56.4477 88.2C57.4277 88.2 58.466 88.1067 59.5627 87.92C60.6827 87.71 61.6744 87.4417 62.5377 87.115L63.0277 90.16C62.141 90.5333 61.126 90.825 59.9827 91.035C58.8627 91.245 57.731 91.35 56.5877 91.35ZM72.3478 91.35C70.5278 91.35 69.0928 90.86 68.0428 89.88C66.9928 88.8767 66.4678 87.5233 66.4678 85.82C66.4678 83.6967 67.3078 82.0633 68.9878 80.92C70.6678 79.7533 73.0595 79.17 76.1628 79.17H78.7878C78.7878 78.2367 78.6711 77.5133 78.4378 77C78.2045 76.4867 77.7961 76.125 77.2128 75.915C76.6528 75.705 75.8711 75.6 74.8678 75.6C73.6778 75.6 72.4645 75.7167 71.2278 75.95C70.0145 76.1833 68.8595 76.5333 67.7628 77L67.2378 73.885C68.4045 73.4417 69.6878 73.0917 71.0878 72.835C72.5111 72.5783 73.9345 72.45 75.3578 72.45C77.1778 72.45 78.6011 72.6717 79.6278 73.115C80.6778 73.5583 81.4245 74.305 81.8678 75.355C82.3345 76.405 82.5678 77.7933 82.5678 79.52V91H78.9628L78.9278 88.9H78.8578C78.2278 89.6233 77.2945 90.2183 76.0578 90.685C74.8445 91.1283 73.6078 91.35 72.3478 91.35ZM73.6778 88.27C74.6111 88.27 75.4628 88.095 76.2328 87.745C77.0261 87.395 77.6445 86.9283 78.0878 86.345C78.5545 85.7617 78.7878 85.1083 78.7878 84.385V82.04H76.6878C74.5411 82.04 72.9311 82.32 71.8578 82.88C70.7845 83.44 70.2478 84.2917 70.2478 85.435C70.2478 86.3217 70.5395 87.0217 71.1228 87.535C71.7295 88.025 72.5811 88.27 73.6778 88.27ZM87.7035 91V65.45H91.5535V91H87.7035ZM105.283 91.35C103.183 91.35 101.666 90.9183 100.733 90.055C99.8231 89.1683 99.3681 87.7333 99.3681 85.75V75.95H95.1681V72.8H99.3681V66.85H103.183V72.8H109.518V75.95H103.183V84.7C103.183 85.9367 103.393 86.8 103.813 87.29C104.233 87.78 104.98 88.025 106.053 88.025C106.59 88.025 107.126 87.9783 107.663 87.885C108.223 87.7917 108.725 87.6633 109.168 87.5L109.518 90.72C108.771 90.9533 108.048 91.1167 107.348 91.21C106.671 91.3033 105.983 91.35 105.283 91.35ZM114.227 69.3V65.45H118.077V69.3H114.227ZM114.227 91V72.8H118.077V91H114.227ZM123.757 91V72.8H127.292L127.327 74.97H127.397C128.05 74.1767 128.843 73.5583 129.777 73.115C130.71 72.6717 131.795 72.45 133.032 72.45C134.245 72.45 135.272 72.6717 136.112 73.115C136.952 73.535 137.547 74.1533 137.897 74.97H137.967C138.643 74.1067 139.437 73.4767 140.347 73.08C141.28 72.66 142.365 72.45 143.602 72.45C145.585 72.45 147.032 72.975 147.942 74.025C148.852 75.0517 149.307 76.685 149.307 78.925V91H145.597V79.8C145.597 78.3533 145.352 77.2917 144.862 76.615C144.372 75.9383 143.59 75.6 142.517 75.6C141.257 75.6 140.253 76.02 139.507 76.86C138.76 77.6767 138.387 78.7733 138.387 80.15V91H134.677V79.45C134.677 78.2133 134.408 77.2683 133.872 76.615C133.335 75.9383 132.577 75.6 131.597 75.6C130.827 75.6 130.127 75.7983 129.497 76.195C128.867 76.5917 128.365 77.14 127.992 77.84C127.642 78.5167 127.467 79.2867 127.467 80.15V91H123.757ZM162.681 91.35C159.531 91.35 157.105 90.5333 155.401 88.9C153.698 87.2667 152.846 84.9333 152.846 81.9C152.846 78.96 153.628 76.65 155.191 74.97C156.778 73.29 158.948 72.45 161.701 72.45C164.361 72.45 166.403 73.2433 167.826 74.83C169.273 76.4167 169.996 78.6683 169.996 81.585C169.996 81.8883 169.985 82.2267 169.961 82.6C169.961 82.9733 169.95 83.265 169.926 83.475H154.946V80.5H167.056L166.461 81.41C166.461 79.4267 166.065 77.9567 165.271 77C164.478 76.02 163.288 75.53 161.701 75.53C160.021 75.53 158.738 76.0433 157.851 77.07C156.988 78.0967 156.556 79.59 156.556 81.55V82.6C156.556 84.49 157.046 85.9017 158.026 86.835C159.03 87.745 160.535 88.2 162.541 88.2C163.521 88.2 164.56 88.1067 165.656 87.92C166.776 87.71 167.768 87.4417 168.631 87.115L169.121 90.16C168.235 90.5333 167.22 90.825 166.076 91.035C164.956 91.245 163.825 91.35 162.681 91.35ZM184.09 91V65.45H188.99L196.48 81.095H196.55L204.04 65.45H208.94V91H205.09V71.575H205.02L198.335 85.575H194.695L188.01 71.575H187.94V91H184.09ZM222.376 91.35C219.483 91.35 217.243 90.5333 215.656 88.9C214.069 87.2433 213.276 84.91 213.276 81.9C213.276 78.89 214.069 76.5683 215.656 74.935C217.243 73.2783 219.483 72.45 222.376 72.45C225.269 72.45 227.509 73.2783 229.096 74.935C230.683 76.5683 231.476 78.89 231.476 81.9C231.476 84.91 230.683 87.2433 229.096 88.9C227.509 90.5333 225.269 91.35 222.376 91.35ZM222.376 88.2C224.103 88.2 225.421 87.6633 226.331 86.59C227.241 85.5167 227.696 83.9533 227.696 81.9C227.696 79.8467 227.241 78.2833 226.331 77.21C225.421 76.1367 224.103 75.6 222.376 75.6C220.673 75.6 219.354 76.1367 218.421 77.21C217.511 78.2833 217.056 79.8467 217.056 81.9C217.056 83.9533 217.511 85.5167 218.421 86.59C219.354 87.6633 220.673 88.2 222.376 88.2ZM242.135 91.35C239.708 91.35 237.807 90.5217 236.43 88.865C235.053 87.185 234.365 84.8633 234.365 81.9C234.365 78.9367 235.053 76.6267 236.43 74.97C237.807 73.29 239.708 72.45 242.135 72.45C243.372 72.45 244.492 72.6717 245.495 73.115C246.522 73.535 247.362 74.1533 248.015 74.97H248.085V65.45H251.865V91H248.26L248.225 88.83H248.155C247.502 89.6233 246.638 90.2417 245.565 90.685C244.515 91.1283 243.372 91.35 242.135 91.35ZM242.975 88.2C243.978 88.2 244.853 88.0017 245.6 87.605C246.37 87.2083 246.977 86.66 247.42 85.96C247.863 85.26 248.085 84.4783 248.085 83.615V80.185C248.085 79.2983 247.863 78.5167 247.42 77.84C246.977 77.14 246.37 76.5917 245.6 76.195C244.853 75.7983 243.99 75.6 243.01 75.6C241.447 75.6 240.233 76.1483 239.37 77.245C238.507 78.3183 238.075 79.87 238.075 81.9C238.075 83.9067 238.507 85.4583 239.37 86.555C240.233 87.6517 241.435 88.2 242.975 88.2ZM265.767 91.35C262.617 91.35 260.191 90.5333 258.487 88.9C256.784 87.2667 255.932 84.9333 255.932 81.9C255.932 78.96 256.714 76.65 258.277 74.97C259.864 73.29 262.034 72.45 264.787 72.45C267.447 72.45 269.489 73.2433 270.912 74.83C272.359 76.4167 273.082 78.6683 273.082 81.585C273.082 81.8883 273.071 82.2267 273.047 82.6C273.047 82.9733 273.036 83.265 273.012 83.475H258.032V80.5H270.142L269.547 81.41C269.547 79.4267 269.151 77.9567 268.357 77C267.564 76.02 266.374 75.53 264.787 75.53C263.107 75.53 261.824 76.0433 260.937 77.07C260.074 78.0967 259.642 79.59 259.642 81.55V82.6C259.642 84.49 260.132 85.9017 261.112 86.835C262.116 87.745 263.621 88.2 265.627 88.2C266.607 88.2 267.646 88.1067 268.742 87.92C269.862 87.71 270.854 87.4417 271.717 87.115L272.207 90.16C271.321 90.5333 270.306 90.825 269.162 91.035C268.042 91.245 266.911 91.35 265.767 91.35Z" fill="#CA5D5D"/>
<path d="M268.661 125L260.001 116.34L251.341 125L260.001 133.66L268.661 125ZM47.9381 123.939C47.3523 124.525 47.3523 125.475 47.9381 126.061L57.4841 135.607C58.0699 136.192 59.0196 136.192 59.6054 135.607C60.1912 135.021 60.1912 134.071 59.6054 133.485L51.1201 125L59.6054 116.515C60.1912 115.929 60.1912 114.979 59.6054 114.393C59.0196 113.808 58.0699 113.808 57.4841 114.393L47.9381 123.939ZM260.001 123.5L48.9988 123.5V126.5L260.001 126.5V123.5Z" fill="#AC4646"/>
</svg>
