<svg width="300" height="185" viewBox="0 0 300 185" fill="none" xmlns="http://www.w3.org/2000/svg">
<rect width="300" height="185" rx="80" fill="#D9D9D9"/>
<path d="M68.485 92V62.07H88.165V66.088H72.995V74.37H87.345V78.306H72.995V87.982H88.165V92H68.485ZM91.6567 92L98.6677 81.258L91.7387 70.68H96.8227L101.661 78.88H101.743L106.581 70.68H111.665L104.736 81.258L111.747 92H106.663L101.743 83.636H101.661L96.7407 92H91.6567ZM125.366 92.41C121.676 92.41 118.833 91.4533 116.838 89.54C114.843 87.6267 113.845 84.8933 113.845 81.34C113.845 77.896 114.761 75.19 116.592 73.222C118.451 71.254 120.993 70.27 124.218 70.27C127.334 70.27 129.726 71.1993 131.393 73.058C133.088 74.9167 133.935 77.5543 133.935 80.971C133.935 81.3263 133.921 81.7227 133.894 82.16C133.894 82.5973 133.88 82.939 133.853 83.185H116.305V79.7H130.491L129.794 80.766C129.794 78.4427 129.329 76.7207 128.4 75.6C127.471 74.452 126.077 73.878 124.218 73.878C122.25 73.878 120.747 74.4793 119.708 75.682C118.697 76.8847 118.191 78.634 118.191 80.93V82.16C118.191 84.374 118.765 86.0277 119.913 87.121C121.088 88.187 122.851 88.72 125.202 88.72C126.35 88.72 127.566 88.6107 128.851 88.392C130.163 88.146 131.325 87.8317 132.336 87.449L132.91 91.016C131.871 91.4533 130.682 91.795 129.343 92.041C128.031 92.287 126.705 92.41 125.366 92.41ZM148.789 92.41C146.384 92.41 144.32 91.9727 142.598 91.098C140.876 90.2233 139.55 88.966 138.621 87.326C137.719 85.6587 137.268 83.6633 137.268 81.34C137.268 79.0167 137.719 77.035 138.621 75.395C139.55 73.7277 140.876 72.4567 142.598 71.582C144.32 70.7073 146.384 70.27 148.789 70.27C149.992 70.27 151.126 70.393 152.192 70.639C153.258 70.8577 154.297 71.2403 155.308 71.787L154.529 75.354C153.6 74.862 152.684 74.5067 151.782 74.288C150.88 74.0693 149.978 73.96 149.076 73.96C146.753 73.96 144.949 74.6023 143.664 75.887C142.407 77.1717 141.778 78.9893 141.778 81.34C141.778 83.6633 142.407 85.481 143.664 86.793C144.949 88.0777 146.753 88.72 149.076 88.72C149.978 88.72 150.88 88.6107 151.782 88.392C152.684 88.1733 153.6 87.818 154.529 87.326L155.308 90.893C154.297 91.4123 153.258 91.795 152.192 92.041C151.126 92.287 149.992 92.41 148.789 92.41ZM167.855 92.41C165.285 92.41 163.399 91.713 162.197 90.319C160.994 88.925 160.393 86.752 160.393 83.8V70.68H164.821V82.98C164.821 84.948 165.149 86.3967 165.805 87.326C166.488 88.2553 167.581 88.72 169.085 88.72C170.205 88.72 171.189 88.4877 172.037 88.023C172.911 87.5583 173.595 86.9297 174.087 86.137C174.579 85.317 174.825 84.4013 174.825 83.39V70.68H179.253V92H175.03L174.989 89.458H174.907C174.059 90.442 173.062 91.18 171.914 91.672C170.766 92.164 169.413 92.41 167.855 92.41ZM194.982 92.41C192.522 92.41 190.745 91.9043 189.652 90.893C188.586 89.8543 188.053 88.1733 188.053 85.85V74.37H183.133V70.68H188.053V63.71H192.522V70.68H199.943V74.37H192.522V84.62C192.522 86.0687 192.768 87.08 193.26 87.654C193.752 88.228 194.626 88.515 195.884 88.515C196.512 88.515 197.141 88.4603 197.77 88.351C198.426 88.2417 199.013 88.0913 199.533 87.9L199.943 91.672C199.068 91.9453 198.221 92.1367 197.401 92.246C196.608 92.3553 195.802 92.41 194.982 92.41ZM214.493 92.41C210.803 92.41 207.96 91.4533 205.965 89.54C203.97 87.6267 202.972 84.8933 202.972 81.34C202.972 77.896 203.888 75.19 205.719 73.222C207.578 71.254 210.12 70.27 213.345 70.27C216.461 70.27 218.853 71.1993 220.52 73.058C222.215 74.9167 223.062 77.5543 223.062 80.971C223.062 81.3263 223.048 81.7227 223.021 82.16C223.021 82.5973 223.007 82.939 222.98 83.185H205.432V79.7H219.618L218.921 80.766C218.921 78.4427 218.456 76.7207 217.527 75.6C216.598 74.452 215.204 73.878 213.345 73.878C211.377 73.878 209.874 74.4793 208.835 75.682C207.824 76.8847 207.318 78.634 207.318 80.93V82.16C207.318 84.374 207.892 86.0277 209.04 87.121C210.215 88.187 211.978 88.72 214.329 88.72C215.477 88.72 216.693 88.6107 217.978 88.392C219.29 88.146 220.452 87.8317 221.463 87.449L222.037 91.016C220.998 91.4533 219.809 91.795 218.47 92.041C217.158 92.287 215.832 92.41 214.493 92.41Z" fill="#80CA5D"/>
<path d="M40.3386 125L48.9988 133.66L57.6591 125L48.9988 116.34L40.3386 125ZM261.062 126.061C261.648 125.475 261.648 124.525 261.062 123.939L251.516 114.393C250.93 113.808 249.98 113.808 249.395 114.393C248.809 114.979 248.809 115.929 249.395 116.515L257.88 125L249.395 133.485C248.809 134.071 248.809 135.021 249.395 135.607C249.98 136.192 250.93 136.192 251.516 135.607L261.062 126.061ZM48.9988 126.5H260.001V123.5H48.9988V126.5Z" fill="#66AC46"/>
</svg>
